<svg width="227" height="21" viewBox="0 0 227 21" fill="none" xmlns="http://www.w3.org/2000/svg">
<path d="M5.02257 1.54103C6.22857 1.09103 7.31757 0.893032 8.28958 0.947032C9.27957 1.00103 10.1616 1.25303 10.9356 1.70303C11.7096 2.13503 12.3666 2.72003 12.9066 3.45803C13.4646 4.19603 13.9146 5.02403 14.2566 5.94203C14.5266 6.62603 14.7336 7.34603 14.8776 8.10203C15.0216 8.85803 15.1026 9.61403 15.1206 10.37C15.1566 11.108 15.1296 11.837 15.0396 12.557C14.9676 13.277 14.8416 13.943 14.6616 14.555C14.5536 14.969 14.4276 15.347 14.2836 15.689C14.1396 16.031 13.9686 16.373 13.7706 16.715C13.3206 17.489 12.7356 18.119 12.0156 18.605C11.3136 19.091 10.5396 19.433 9.69357 19.631C9.11757 19.775 8.52357 19.847 7.91157 19.847C7.29957 19.829 6.69657 19.748 6.10257 19.604C5.50857 19.442 4.93257 19.217 4.37457 18.929C3.83457 18.623 3.33957 18.245 2.88957 17.795C2.33157 17.255 1.87257 16.634 1.51257 15.932C1.15257 15.212 0.873574 14.465 0.675574 13.691C0.477574 12.899 0.351574 12.107 0.297574 11.315C0.243574 10.523 0.243574 9.76703 0.297574 9.04703C0.351574 8.38103 0.477574 7.67003 0.675574 6.91403C0.891574 6.15803 1.19757 5.42903 1.59357 4.72703C1.98957 4.02503 2.46657 3.39503 3.02457 2.83703C3.60057 2.26103 4.26657 1.82903 5.02257 1.54103ZM11.3406 13.097C11.5566 12.251 11.6466 11.297 11.6106 10.235C11.5746 9.17303 11.4036 8.17403 11.0976 7.23803C10.8996 6.66203 10.6476 6.15803 10.3416 5.72603C10.0536 5.27603 9.70258 4.93403 9.28858 4.70003C8.89257 4.46603 8.42457 4.34903 7.88457 4.34903C7.34457 4.34903 6.74157 4.51103 6.07557 4.83503C5.67957 5.03303 5.33757 5.30303 5.04957 5.64503C4.77957 5.98703 4.55457 6.37403 4.37457 6.80603C4.21257 7.23803 4.07757 7.68803 3.96957 8.15603C3.87957 8.62403 3.82557 9.07403 3.80757 9.50603C3.77157 9.97403 3.76257 10.469 3.78057 10.991C3.79857 11.495 3.85257 12.008 3.94257 12.53C4.05057 13.034 4.19457 13.52 4.37457 13.988C4.55457 14.438 4.79757 14.843 5.10357 15.203C5.57157 15.743 6.11157 16.121 6.72357 16.337C7.35357 16.535 7.97457 16.562 8.58657 16.418C9.57657 16.202 10.3326 15.545 10.8546 14.447C11.0706 14.051 11.2326 13.601 11.3406 13.097ZM28.4265 13.583C28.3905 14.177 28.3545 14.78 28.3185 15.392C28.2825 15.986 28.1835 16.562 28.0215 17.12C27.8775 17.678 27.6435 18.182 27.3195 18.632C27.0135 19.082 26.5725 19.442 25.9965 19.712C25.4925 19.964 24.9525 20.135 24.3765 20.225C23.8005 20.333 23.2245 20.378 22.6485 20.36C22.0725 20.342 21.5145 20.252 20.9745 20.09C20.4345 19.946 19.9485 19.739 19.5165 19.469C19.0845 19.199 18.7335 18.848 18.4635 18.416C18.1935 17.984 17.9775 17.516 17.8155 17.012C17.6715 16.508 17.5725 15.986 17.5185 15.446C17.4645 14.906 17.4285 14.402 17.4105 13.934C17.3385 12.692 17.3385 11.468 17.4105 10.262C17.4105 10.028 17.4105 9.76703 17.4105 9.47903C17.4105 9.17303 17.4285 8.87603 17.4645 8.58803C17.5185 8.30003 17.5995 8.03903 17.7075 7.80503C17.8155 7.55303 17.9955 7.36403 18.2475 7.23803C18.7875 6.95003 19.2825 6.93203 19.7325 7.18403C20.2005 7.43603 20.4795 7.95803 20.5695 8.75003C20.6235 9.16403 20.6415 9.62303 20.6235 10.127C20.6235 10.631 20.6415 11.09 20.6775 11.504C20.6955 12.116 20.7135 12.782 20.7315 13.502C20.7495 14.204 20.8485 14.834 21.0285 15.392C21.2265 15.95 21.5415 16.373 21.9735 16.661C22.4235 16.931 23.0895 16.94 23.9715 16.688C24.3855 16.562 24.6555 16.247 24.7815 15.743C24.9255 15.239 24.9975 14.492 24.9975 13.502C24.9975 13.07 24.9885 12.593 24.9705 12.071C24.9525 11.549 24.9435 11.036 24.9435 10.532C24.9435 10.01 24.9525 9.53303 24.9705 9.10103C25.0065 8.65103 25.0605 8.30903 25.1325 8.07503C25.2225 7.75103 25.4115 7.50803 25.6995 7.34603C25.9875 7.18403 26.2935 7.10303 26.6175 7.10303C26.9415 7.08503 27.2475 7.14803 27.5355 7.29203C27.8235 7.43603 28.0215 7.67003 28.1295 7.99403C28.2375 8.28203 28.3095 8.65103 28.3455 9.10103C28.3995 9.53303 28.4355 10.01 28.4535 10.532C28.4715 11.036 28.4715 11.558 28.4535 12.098C28.4535 12.62 28.4445 13.115 28.4265 13.583ZM30.6719 10.451C30.6719 10.235 30.6719 9.99203 30.6719 9.72203C30.6719 9.43403 30.6809 9.14603 30.6989 8.85803C30.7169 8.55203 30.7439 8.26403 30.7799 7.99403C30.8339 7.70603 30.9059 7.45403 30.9959 7.23803C31.1399 6.91403 31.3649 6.69803 31.6709 6.59003C31.9769 6.46403 32.3099 6.41003 32.6699 6.42803C33.0479 6.42803 33.3449 6.49103 33.5609 6.61703C33.7769 6.74303 33.9389 6.91403 34.0469 7.13003C34.1549 7.32803 34.2179 7.56203 34.2359 7.83203C34.2719 8.08403 34.2899 8.35403 34.2899 8.64203C34.4519 8.35403 34.6679 8.12003 34.9379 7.94003C35.2259 7.76003 35.5139 7.61603 35.8019 7.50803C36.0899 7.40003 36.3509 7.32803 36.5849 7.29203C36.8189 7.23803 36.9539 7.21103 36.9899 7.21103C37.4399 7.17503 37.8449 7.16603 38.2049 7.18403C38.5829 7.20203 38.9969 7.28303 39.4469 7.42703C39.7349 7.53503 40.0319 7.68803 40.3379 7.88603C40.6439 8.06603 40.9139 8.28203 41.1479 8.53403C41.3819 8.78603 41.5349 9.06503 41.6069 9.37103C41.6969 9.65903 41.6609 9.96503 41.4989 10.289C41.2469 10.739 40.9679 10.964 40.6619 10.964C40.3559 10.946 40.0229 10.892 39.6629 10.802C39.4649 10.766 39.2309 10.685 38.9609 10.559C38.6909 10.433 38.4569 10.352 38.2589 10.316C37.6469 10.226 37.1069 10.271 36.6389 10.451C36.1709 10.631 35.7659 10.847 35.4239 11.099C35.0279 11.405 34.6859 11.756 34.3979 12.152V16.04C34.3979 16.526 34.3889 17.03 34.3709 17.552C34.3709 18.074 34.2989 18.551 34.1549 18.983C34.0289 19.397 33.8039 19.739 33.4799 20.009C33.1739 20.261 32.7239 20.369 32.1299 20.333C31.8059 20.315 31.5179 20.162 31.2659 19.874C31.0139 19.568 30.8609 19.271 30.8069 18.983C30.7709 18.713 30.7439 18.389 30.7259 18.011C30.7079 17.633 30.6899 17.237 30.6719 16.823C30.6719 16.409 30.6719 15.995 30.6719 15.581C30.6719 15.149 30.6719 14.753 30.6719 14.393V10.451ZM64.3973 17.957C64.4333 18.047 64.4513 18.182 64.4513 18.362C64.4513 18.524 64.4513 18.659 64.4513 18.767C64.4513 18.911 64.4243 19.046 64.3703 19.172C64.3163 19.298 64.2443 19.415 64.1543 19.523C63.9923 19.739 63.7583 19.901 63.4523 20.009C63.0203 20.153 62.6153 20.225 62.2373 20.225C62.0393 20.243 61.8323 20.252 61.6163 20.252C61.4003 20.252 61.1843 20.27 60.9683 20.306H60.8603C59.4743 20.324 58.0433 20.324 56.5673 20.306C56.2073 20.288 55.8023 20.288 55.3523 20.306C54.9023 20.342 54.4613 20.333 54.0293 20.279C53.5973 20.243 53.2013 20.144 52.8413 19.982C52.4993 19.802 52.2563 19.523 52.1123 19.145C52.0763 19.055 52.0493 18.974 52.0313 18.902C52.0133 18.812 52.0043 18.722 52.0043 18.632C51.9323 18.02 51.9053 17.417 51.9233 16.823C51.9413 16.229 51.9503 15.644 51.9503 15.068L52.0043 11.153V7.53503C52.0043 6.88703 52.0043 6.31103 52.0043 5.80703C52.0223 5.30303 52.0403 4.74503 52.0583 4.13303V3.99803C52.0763 3.81803 52.0853 3.63803 52.0853 3.45803C52.1033 3.27803 52.1123 3.09803 52.1123 2.91803C52.1483 2.50403 52.2473 2.15303 52.4093 1.86503C52.5173 1.59503 52.7063 1.37903 52.9763 1.21703C53.2103 1.05503 53.4893 0.974032 53.8133 0.974032C53.9393 0.974032 54.0563 0.983032 54.1643 1.00103C54.2903 1.00103 54.4073 1.01003 54.5153 1.02803C54.6233 1.04603 54.7223 1.08203 54.8123 1.13603C54.9203 1.19003 55.0283 1.26203 55.1363 1.35203C55.2443 1.47803 55.3433 1.63103 55.4333 1.81103C55.5053 2.00903 55.5503 2.20703 55.5683 2.40503C55.5863 2.53103 55.6043 2.64803 55.6223 2.75603C55.6403 2.86403 55.6493 2.97203 55.6493 3.08003C55.6133 3.18803 55.5953 3.29603 55.5953 3.40403C55.5953 3.51203 55.5953 3.61103 55.5953 3.70103V4.18703L55.4873 16.904L60.8333 16.958H62.1023C62.2103 16.958 62.3273 16.967 62.4533 16.985C62.5793 16.985 62.7053 16.994 62.8313 17.012C62.9753 17.03 63.1013 17.048 63.2093 17.066C63.3173 17.084 63.4253 17.111 63.5333 17.147C63.7313 17.201 63.8933 17.291 64.0193 17.417C64.2173 17.597 64.3433 17.777 64.3973 17.957ZM70.0118 9.77603C70.0118 10.28 70.0118 10.847 70.0118 11.477C70.0298 12.107 70.0388 12.764 70.0388 13.448C70.0388 14.114 70.0388 14.78 70.0388 15.446C70.0388 16.094 70.0298 16.697 70.0118 17.255C69.9938 17.525 69.9668 17.822 69.9308 18.146C69.8948 18.452 69.8228 18.74 69.7148 19.01C69.6068 19.28 69.4358 19.505 69.2018 19.685C68.9858 19.847 68.6888 19.919 68.3108 19.901C67.7528 19.865 67.3478 19.622 67.0958 19.172C66.8618 18.722 66.7268 18.092 66.6908 17.282C66.6908 16.868 66.6818 16.391 66.6638 15.851C66.6638 15.311 66.6548 14.762 66.6368 14.204C66.6368 13.646 66.6368 13.106 66.6368 12.584C66.6368 12.044 66.6368 11.558 66.6368 11.126C66.6368 10.874 66.6278 10.568 66.6098 10.208C66.6098 9.84803 66.6188 9.47903 66.6368 9.10103C66.6548 8.72303 66.6998 8.36303 66.7718 8.02103C66.8438 7.66103 66.9608 7.36403 67.1228 7.13003C67.2488 6.98603 67.4288 6.87803 67.6628 6.80603C67.8968 6.71603 68.1398 6.67103 68.3918 6.67103C68.6618 6.67103 68.9138 6.71603 69.1478 6.80603C69.3998 6.89603 69.5798 7.02203 69.6878 7.18403C69.7598 7.29203 69.8138 7.44503 69.8498 7.64303C69.8858 7.84103 69.9128 8.06603 69.9308 8.31803C69.9668 8.55203 69.9848 8.80403 69.9848 9.07403C70.0028 9.32603 70.0118 9.56003 70.0118 9.77603ZM68.9858 4.32203C68.4278 4.46603 67.9598 4.41203 67.5818 4.16003C67.2218 3.89003 66.9968 3.49403 66.9068 2.97203C66.8348 2.59403 66.8618 2.26103 66.9878 1.97303C67.1138 1.68503 67.3028 1.46903 67.5548 1.32503C67.8068 1.16303 68.0948 1.09103 68.4188 1.10903C68.7428 1.12703 69.0668 1.25303 69.3908 1.48703C69.6968 1.70303 69.9128 1.95503 70.0388 2.24303C70.1828 2.53103 70.2278 2.81003 70.1738 3.08003C70.1378 3.35003 70.0208 3.60203 69.8228 3.83603C69.6248 4.05203 69.3458 4.21403 68.9858 4.32203ZM83.9132 8.10203C84.0572 8.44403 84.0662 8.82203 83.9402 9.23603C83.8322 9.65003 83.6252 9.92003 83.3192 10.046C83.1572 10.118 82.9412 10.181 82.6712 10.235C82.4012 10.271 82.1042 10.307 81.7802 10.343C81.4742 10.379 81.1682 10.406 80.8622 10.424C80.5562 10.442 80.2952 10.451 80.0792 10.451C80.0972 10.991 80.1152 11.549 80.1332 12.125C80.1512 12.683 80.1692 13.232 80.1872 13.772C80.2052 14.312 80.2142 14.834 80.2142 15.338C80.2142 15.824 80.2052 16.265 80.1872 16.661C80.1872 16.931 80.1872 17.246 80.1872 17.606C80.1872 17.948 80.1602 18.281 80.1062 18.605C80.0702 18.929 80.0072 19.217 79.9172 19.469C79.8272 19.703 79.6922 19.856 79.5122 19.928C78.9542 20.162 78.4412 20.225 77.9732 20.117C77.5232 20.027 77.1992 19.838 77.0012 19.55C76.8572 19.316 76.7492 19.046 76.6772 18.74C76.6052 18.416 76.5512 18.092 76.5152 17.768C76.4972 17.426 76.4882 17.102 76.4882 16.796C76.5062 16.472 76.5152 16.193 76.5152 15.959C76.5332 15.203 76.5422 14.348 76.5422 13.394C76.5602 12.422 76.5692 11.45 76.5692 10.478H76.1642C75.9482 10.478 75.6692 10.478 75.3272 10.478C75.0032 10.46 74.6702 10.433 74.3282 10.397C74.0042 10.343 73.6982 10.28 73.4102 10.208C73.1222 10.118 72.9152 9.99203 72.7892 9.83003C72.5912 9.59603 72.4652 9.34403 72.4112 9.07403C72.3752 8.80403 72.3932 8.55203 72.4652 8.31803C72.5552 8.06603 72.6902 7.85003 72.8702 7.67003C73.0502 7.47203 73.2572 7.34603 73.4912 7.29203C73.8152 7.20203 74.2742 7.15703 74.8682 7.15703C75.4622 7.13903 76.0202 7.13903 76.5422 7.15703C76.5242 6.97703 76.5152 6.80603 76.5152 6.64403C76.5152 6.46403 76.5062 6.29303 76.4882 6.13103C76.4702 5.91503 76.4612 5.64503 76.4612 5.32103C76.4612 4.97903 76.4792 4.64603 76.5152 4.32203C76.5692 3.98003 76.6502 3.66503 76.7582 3.37703C76.8662 3.07103 77.0192 2.83703 77.2172 2.67503C77.4872 2.45903 77.7572 2.34203 78.0272 2.32403C78.3152 2.28803 78.5762 2.32403 78.8102 2.43203C79.0622 2.54003 79.2692 2.70203 79.4312 2.91803C79.6112 3.11603 79.7372 3.34103 79.8092 3.59303C79.8632 3.80903 79.9082 4.07003 79.9442 4.37603C79.9802 4.66403 79.9982 4.97003 79.9982 5.29403C80.0162 5.61803 80.0252 5.94203 80.0252 6.26603C80.0252 6.59003 80.0252 6.88703 80.0252 7.15703H80.2952C80.5652 7.15703 80.8802 7.14803 81.2402 7.13003C81.6002 7.11203 81.9512 7.12103 82.2932 7.15703C82.6532 7.19303 82.9772 7.28303 83.2652 7.42703C83.5532 7.55303 83.7692 7.77803 83.9132 8.10203ZM97.7296 8.10203C97.8736 8.44403 97.8826 8.82203 97.7566 9.23603C97.6486 9.65003 97.4416 9.92003 97.1356 10.046C96.9736 10.118 96.7576 10.181 96.4876 10.235C96.2176 10.271 95.9206 10.307 95.5966 10.343C95.2906 10.379 94.9846 10.406 94.6786 10.424C94.3726 10.442 94.1116 10.451 93.8956 10.451C93.9136 10.991 93.9316 11.549 93.9496 12.125C93.9676 12.683 93.9856 13.232 94.0036 13.772C94.0216 14.312 94.0306 14.834 94.0306 15.338C94.0306 15.824 94.0216 16.265 94.0036 16.661C94.0036 16.931 94.0036 17.246 94.0036 17.606C94.0036 17.948 93.9766 18.281 93.9226 18.605C93.8866 18.929 93.8236 19.217 93.7336 19.469C93.6436 19.703 93.5086 19.856 93.3286 19.928C92.7706 20.162 92.2576 20.225 91.7896 20.117C91.3396 20.027 91.0156 19.838 90.8176 19.55C90.6736 19.316 90.5656 19.046 90.4936 18.74C90.4216 18.416 90.3676 18.092 90.3316 17.768C90.3136 17.426 90.3046 17.102 90.3046 16.796C90.3226 16.472 90.3316 16.193 90.3316 15.959C90.3496 15.203 90.3586 14.348 90.3586 13.394C90.3766 12.422 90.3856 11.45 90.3856 10.478H89.9806C89.7646 10.478 89.4856 10.478 89.1436 10.478C88.8196 10.46 88.4866 10.433 88.1446 10.397C87.8206 10.343 87.5146 10.28 87.2266 10.208C86.9386 10.118 86.7316 9.99203 86.6056 9.83003C86.4076 9.59603 86.2816 9.34403 86.2276 9.07403C86.1916 8.80403 86.2096 8.55203 86.2816 8.31803C86.3716 8.06603 86.5066 7.85003 86.6866 7.67003C86.8666 7.47203 87.0736 7.34603 87.3076 7.29203C87.6316 7.20203 88.0906 7.15703 88.6846 7.15703C89.2786 7.13903 89.8366 7.13903 90.3586 7.15703C90.3406 6.97703 90.3316 6.80603 90.3316 6.64403C90.3316 6.46403 90.3226 6.29303 90.3046 6.13103C90.2866 5.91503 90.2776 5.64503 90.2776 5.32103C90.2776 4.97903 90.2956 4.64603 90.3316 4.32203C90.3856 3.98003 90.4666 3.66503 90.5746 3.37703C90.6826 3.07103 90.8356 2.83703 91.0336 2.67503C91.3036 2.45903 91.5736 2.34203 91.8436 2.32403C92.1316 2.28803 92.3926 2.32403 92.6266 2.43203C92.8786 2.54003 93.0856 2.70203 93.2476 2.91803C93.4276 3.11603 93.5536 3.34103 93.6256 3.59303C93.6796 3.80903 93.7246 4.07003 93.7606 4.37603C93.7966 4.66403 93.8146 4.97003 93.8146 5.29403C93.8326 5.61803 93.8416 5.94203 93.8416 6.26603C93.8416 6.59003 93.8416 6.88703 93.8416 7.15703H94.1116C94.3816 7.15703 94.6966 7.14803 95.0566 7.13003C95.4166 7.11203 95.7676 7.12103 96.1096 7.15703C96.4696 7.19303 96.7936 7.28303 97.0816 7.42703C97.3696 7.55303 97.5856 7.77803 97.7296 8.10203ZM103.608 17.849C103.59 17.939 103.572 18.029 103.554 18.119C103.554 18.191 103.554 18.272 103.554 18.362L103.392 18.929C103.356 19.001 103.329 19.046 103.311 19.064L103.23 19.226C103.14 19.424 102.978 19.586 102.744 19.712C102.312 19.928 101.853 19.982 101.367 19.874C101.061 19.838 100.818 19.748 100.638 19.604C100.458 19.478 100.332 19.325 100.26 19.145C100.188 18.965 100.134 18.785 100.098 18.605C100.044 18.425 100.017 18.263 100.017 18.119V2.99903C100.017 2.87303 100.017 2.76503 100.017 2.67503C100.035 2.56703 100.053 2.46803 100.071 2.37803C100.089 2.25203 100.107 2.14403 100.125 2.05403C100.161 1.96403 100.197 1.86503 100.233 1.75703C100.287 1.57703 100.386 1.43303 100.53 1.32503C100.746 1.16303 100.953 1.07303 101.151 1.05503C101.277 1.01903 101.394 1.00103 101.502 1.00103C101.61 0.983032 101.736 0.974032 101.88 0.974032C102.132 0.974032 102.42 1.04603 102.744 1.19003C102.996 1.33403 103.176 1.53203 103.284 1.78403C103.464 2.14403 103.554 2.47703 103.554 2.78303C103.572 2.96303 103.581 3.23303 103.581 3.59303C103.599 3.95303 103.608 4.22303 103.608 4.40303V4.51103C103.644 5.08703 103.662 5.64503 103.662 6.18503C103.662 6.70703 103.653 7.28303 103.635 7.91303C103.635 8.52503 103.626 9.11903 103.608 9.69503C103.608 10.253 103.608 10.811 103.608 11.369V17.039C103.608 17.111 103.608 17.183 103.608 17.255C103.626 17.309 103.635 17.372 103.635 17.444C103.635 17.624 103.626 17.759 103.608 17.849ZM115.16 16.31C115.376 16.256 115.592 16.22 115.808 16.202C116.042 16.184 116.249 16.211 116.429 16.283C116.627 16.355 116.789 16.481 116.915 16.661C117.041 16.823 117.104 17.057 117.104 17.363C117.104 17.579 117.05 17.786 116.942 17.984C116.834 18.182 116.699 18.362 116.537 18.524C116.375 18.686 116.195 18.83 115.997 18.956C115.799 19.064 115.61 19.154 115.43 19.226C114.908 19.46 114.305 19.64 113.621 19.766C112.955 19.892 112.262 19.937 111.542 19.901C110.57 19.865 109.634 19.676 108.734 19.334C107.852 18.974 107.159 18.389 106.655 17.579C106.187 16.787 105.908 15.905 105.818 14.933C105.728 13.961 105.773 13.043 105.953 12.179C106.151 11.135 106.484 10.289 106.952 9.64103C107.438 8.97503 108.014 8.44403 108.68 8.04803C109.49 7.58003 110.399 7.33703 111.407 7.31903C112.415 7.30103 113.378 7.49903 114.296 7.91303C114.908 8.18303 115.457 8.55203 115.943 9.02003C116.429 9.47003 116.798 10.019 117.05 10.667C117.122 10.829 117.176 11.027 117.212 11.261C117.266 11.495 117.302 11.747 117.32 12.017C117.338 12.269 117.338 12.521 117.32 12.773C117.302 13.025 117.257 13.25 117.185 13.448C117.077 13.772 116.942 14.024 116.78 14.204C116.618 14.384 116.411 14.519 116.159 14.609C115.907 14.699 115.601 14.762 115.241 14.798C114.899 14.816 114.485 14.834 113.999 14.852C113.567 14.87 113.162 14.879 112.784 14.879C112.406 14.879 112.019 14.879 111.623 14.879C111.227 14.861 110.813 14.852 110.381 14.852C109.967 14.834 109.499 14.816 108.977 14.798C108.923 15.158 108.968 15.473 109.112 15.743C109.274 15.995 109.49 16.211 109.76 16.391C110.03 16.553 110.336 16.679 110.678 16.769C111.02 16.859 111.353 16.913 111.677 16.931C112.289 16.967 112.874 16.922 113.432 16.796C113.99 16.652 114.566 16.49 115.16 16.31ZM113.999 11.072C113.657 10.676 113.297 10.388 112.919 10.208C112.631 10.082 112.325 10.028 112.001 10.046C111.695 10.046 111.398 10.091 111.11 10.181C110.588 10.307 110.147 10.577 109.787 10.991C109.751 11.027 109.688 11.117 109.598 11.261C109.508 11.387 109.418 11.522 109.328 11.666C109.256 11.81 109.202 11.945 109.166 12.071C109.13 12.197 109.148 12.26 109.22 12.26H114.512C114.494 12.008 114.449 11.801 114.377 11.639C114.305 11.459 114.179 11.27 113.999 11.072ZM142.339 2.37803C142.447 3.24203 142.51 4.25003 142.528 5.40203C142.546 6.53603 142.528 7.68803 142.474 8.85803C142.438 10.01 142.357 11.108 142.231 12.152C142.105 13.178 141.952 14.006 141.772 14.636C141.646 15.014 141.493 15.41 141.313 15.824C141.151 16.22 140.971 16.58 140.773 16.904C140.485 17.39 140.134 17.822 139.72 18.2C139.306 18.56 138.847 18.875 138.343 19.145C137.857 19.397 137.335 19.595 136.777 19.739C136.237 19.883 135.697 19.964 135.157 19.982C134.203 20.018 133.294 19.883 132.43 19.577C131.584 19.253 130.801 18.749 130.081 18.065C129.541 17.543 129.109 16.985 128.785 16.391C128.461 15.797 128.209 15.176 128.029 14.528C127.849 13.862 127.732 13.178 127.678 12.476C127.642 11.774 127.624 11.054 127.624 10.316C127.624 9.97403 127.615 9.55103 127.597 9.04703C127.597 8.52503 127.597 7.99403 127.597 7.45403C127.597 6.89603 127.597 6.35603 127.597 5.83403C127.597 5.31203 127.606 4.87103 127.624 4.51103C127.624 4.27703 127.624 4.02503 127.624 3.75503C127.624 3.46703 127.633 3.18803 127.651 2.91803C127.687 2.63003 127.741 2.36003 127.813 2.10803C127.885 1.83803 127.993 1.59503 128.137 1.37903C128.299 1.14503 128.524 0.974033 128.812 0.866032C129.1 0.758032 129.397 0.704032 129.703 0.704032C130.027 0.704032 130.333 0.767033 130.621 0.893033C130.909 1.01903 131.143 1.19903 131.323 1.43303C131.413 1.57703 131.476 1.72103 131.512 1.86503C131.548 2.00903 131.575 2.17103 131.593 2.35103C131.629 2.94503 131.647 3.62003 131.647 4.37603C131.665 5.13203 131.665 5.87003 131.647 6.59003C131.647 7.29203 131.638 7.94003 131.62 8.53403C131.602 9.12803 131.593 9.56903 131.593 9.85703C131.593 10.937 131.647 11.918 131.755 12.8C131.863 13.664 132.115 14.384 132.511 14.96C132.871 15.482 133.294 15.815 133.78 15.959C134.266 16.103 134.752 16.148 135.238 16.094C135.688 16.04 136.138 15.878 136.588 15.608C137.056 15.32 137.425 14.906 137.695 14.366C137.803 14.168 137.893 13.943 137.965 13.691C138.037 13.439 138.091 13.205 138.127 12.989C138.199 12.305 138.262 11.513 138.316 10.613C138.37 9.69503 138.415 8.75903 138.451 7.80503C138.487 6.85103 138.505 5.91503 138.505 4.99703C138.505 4.07903 138.496 3.25103 138.478 2.51303C138.514 2.18903 138.613 1.89203 138.775 1.62203C138.919 1.38803 139.126 1.18103 139.396 1.00103C139.666 0.821032 140.035 0.731032 140.503 0.731032C140.881 0.749032 141.187 0.848032 141.421 1.02803C141.655 1.19003 141.844 1.37003 141.988 1.56803C142.15 1.80203 142.267 2.07203 142.339 2.37803ZM144.736 10.37C144.736 9.95603 144.727 9.51503 144.709 9.04703C144.709 8.57903 144.79 8.15603 144.952 7.77803C145.096 7.43603 145.33 7.19303 145.654 7.04903C145.996 6.88703 146.329 6.85103 146.653 6.94103C146.977 6.99503 147.229 7.09403 147.409 7.23803C147.589 7.38203 147.715 7.55303 147.787 7.75103C147.877 7.93103 147.931 8.14703 147.949 8.39903C147.967 8.63303 147.985 8.86703 148.003 9.10103C148.183 8.77703 148.408 8.51603 148.678 8.31803C148.948 8.12003 149.227 7.95803 149.515 7.83203C149.803 7.70603 150.073 7.61603 150.325 7.56203C150.595 7.50803 150.802 7.48103 150.946 7.48103C151.63 7.48103 152.305 7.63403 152.971 7.94003C153.655 8.22803 154.222 8.64203 154.672 9.18203C154.924 9.50603 155.113 9.84803 155.239 10.208C155.383 10.55 155.482 10.91 155.536 11.288C155.608 11.666 155.653 12.053 155.671 12.449C155.689 12.827 155.707 13.214 155.725 13.61C155.815 14.762 155.815 15.905 155.725 17.039C155.707 17.273 155.698 17.543 155.698 17.849C155.698 18.155 155.671 18.461 155.617 18.767C155.581 19.055 155.5 19.316 155.374 19.55C155.266 19.766 155.077 19.901 154.807 19.955C154.429 20.045 154.114 20.063 153.862 20.009C153.628 19.973 153.439 19.892 153.295 19.766C153.151 19.64 153.043 19.478 152.971 19.28C152.899 19.082 152.836 18.857 152.782 18.605C152.746 18.407 152.71 18.182 152.674 17.93C152.656 17.66 152.638 17.39 152.62 17.12C152.62 16.85 152.611 16.589 152.593 16.337C152.593 16.067 152.593 15.824 152.593 15.608C152.593 15.266 152.584 14.888 152.566 14.474C152.548 14.06 152.548 13.673 152.566 13.313C152.566 12.467 152.341 11.828 151.891 11.396C151.459 10.946 150.865 10.757 150.109 10.829C149.533 10.901 149.029 11.135 148.597 11.531C148.165 11.909 147.958 12.404 147.976 13.016C147.976 13.25 147.976 13.466 147.976 13.664C147.976 13.862 147.967 14.06 147.949 14.258C147.949 14.456 147.949 14.672 147.949 14.906C147.949 15.14 147.949 15.401 147.949 15.689C147.949 16.283 147.949 16.913 147.949 17.579C147.949 18.227 147.868 18.758 147.706 19.172C147.562 19.604 147.319 19.901 146.977 20.063C146.635 20.225 146.23 20.18 145.762 19.928C145.564 19.82 145.402 19.676 145.276 19.496C145.168 19.298 145.078 19.091 145.006 18.875C144.952 18.659 144.916 18.443 144.898 18.227C144.88 17.993 144.862 17.777 144.844 17.579C144.79 16.985 144.754 16.436 144.736 15.932C144.736 15.41 144.736 14.852 144.736 14.258V10.37ZM161.374 9.77603C161.374 10.28 161.374 10.847 161.374 11.477C161.392 12.107 161.401 12.764 161.401 13.448C161.401 14.114 161.401 14.78 161.401 15.446C161.401 16.094 161.392 16.697 161.374 17.255C161.356 17.525 161.329 17.822 161.293 18.146C161.257 18.452 161.185 18.74 161.077 19.01C160.969 19.28 160.798 19.505 160.564 19.685C160.348 19.847 160.051 19.919 159.673 19.901C159.115 19.865 158.71 19.622 158.458 19.172C158.224 18.722 158.089 18.092 158.053 17.282C158.053 16.868 158.044 16.391 158.026 15.851C158.026 15.311 158.017 14.762 157.999 14.204C157.999 13.646 157.999 13.106 157.999 12.584C157.999 12.044 157.999 11.558 157.999 11.126C157.999 10.874 157.99 10.568 157.972 10.208C157.972 9.84803 157.981 9.47903 157.999 9.10103C158.017 8.72303 158.062 8.36303 158.134 8.02103C158.206 7.66103 158.323 7.36403 158.485 7.13003C158.611 6.98603 158.791 6.87803 159.025 6.80603C159.259 6.71603 159.502 6.67103 159.754 6.67103C160.024 6.67103 160.276 6.71603 160.51 6.80603C160.762 6.89603 160.942 7.02203 161.05 7.18403C161.122 7.29203 161.176 7.44503 161.212 7.64303C161.248 7.84103 161.275 8.06603 161.293 8.31803C161.329 8.55203 161.347 8.80403 161.347 9.07403C161.365 9.32603 161.374 9.56003 161.374 9.77603ZM160.348 4.32203C159.79 4.46603 159.322 4.41203 158.944 4.16003C158.584 3.89003 158.359 3.49403 158.269 2.97203C158.197 2.59403 158.224 2.26103 158.35 1.97303C158.476 1.68503 158.665 1.46903 158.917 1.32503C159.169 1.16303 159.457 1.09103 159.781 1.10903C160.105 1.12703 160.429 1.25303 160.753 1.48703C161.059 1.70303 161.275 1.95503 161.401 2.24303C161.545 2.53103 161.59 2.81003 161.536 3.08003C161.5 3.35003 161.383 3.60203 161.185 3.83603C160.987 4.05203 160.708 4.21403 160.348 4.32203ZM175.762 8.18303C175.834 8.39903 175.852 8.64203 175.816 8.91203C175.78 9.18203 175.717 9.46103 175.627 9.74903C175.537 10.019 175.429 10.289 175.303 10.559C175.195 10.811 175.096 11.036 175.006 11.234C174.538 12.188 174.097 13.124 173.683 14.042C173.269 14.96 172.783 15.959 172.225 17.039C172.117 17.255 171.991 17.516 171.847 17.822C171.721 18.11 171.577 18.398 171.415 18.686C171.253 18.956 171.073 19.208 170.875 19.442C170.695 19.676 170.497 19.847 170.281 19.955C170.101 20.063 169.921 20.108 169.741 20.09C169.597 20.126 169.435 20.081 169.255 19.955C169.039 19.847 168.832 19.676 168.634 19.442C168.454 19.208 168.283 18.956 168.121 18.686C167.959 18.398 167.806 18.11 167.662 17.822C167.536 17.516 167.419 17.255 167.311 17.039C167.095 16.625 166.888 16.238 166.69 15.878C166.51 15.518 166.312 15.131 166.096 14.717C165.898 14.285 165.673 13.799 165.421 13.259C165.169 12.701 164.872 12.026 164.53 11.234C164.44 11.018 164.341 10.793 164.233 10.559C164.125 10.325 164.026 10.073 163.936 9.80303C163.864 9.53303 163.81 9.26303 163.774 8.99303C163.756 8.70503 163.774 8.41703 163.828 8.12903C163.882 7.85903 164.017 7.64303 164.233 7.48103C164.449 7.31903 164.692 7.21103 164.962 7.15703C165.232 7.10303 165.502 7.11203 165.772 7.18403C166.042 7.23803 166.258 7.35503 166.42 7.53503C166.582 7.69703 166.735 7.91303 166.879 8.18303C167.023 8.45303 167.158 8.74103 167.284 9.04703C167.428 9.33503 167.554 9.63203 167.662 9.93803C167.788 10.226 167.905 10.478 168.013 10.694C168.265 11.216 168.544 11.783 168.85 12.395C169.174 13.007 169.462 13.574 169.714 14.096C169.894 13.682 170.056 13.34 170.2 13.07C170.344 12.782 170.479 12.503 170.605 12.233C170.749 11.963 170.893 11.666 171.037 11.342C171.199 11.018 171.397 10.604 171.631 10.1C171.847 9.63203 172.063 9.17303 172.279 8.72303C172.513 8.27303 172.792 7.87703 173.116 7.53503C173.278 7.35503 173.485 7.23803 173.737 7.18403C173.989 7.11203 174.25 7.10303 174.52 7.15703C174.79 7.21103 175.033 7.32803 175.249 7.50803C175.483 7.67003 175.654 7.89503 175.762 8.18303ZM186.536 16.31C186.752 16.256 186.968 16.22 187.184 16.202C187.418 16.184 187.625 16.211 187.805 16.283C188.003 16.355 188.165 16.481 188.291 16.661C188.417 16.823 188.48 17.057 188.48 17.363C188.48 17.579 188.426 17.786 188.318 17.984C188.21 18.182 188.075 18.362 187.913 18.524C187.751 18.686 187.571 18.83 187.373 18.956C187.175 19.064 186.986 19.154 186.806 19.226C186.284 19.46 185.681 19.64 184.997 19.766C184.331 19.892 183.638 19.937 182.918 19.901C181.946 19.865 181.01 19.676 180.11 19.334C179.228 18.974 178.535 18.389 178.031 17.579C177.563 16.787 177.284 15.905 177.194 14.933C177.104 13.961 177.149 13.043 177.329 12.179C177.527 11.135 177.86 10.289 178.328 9.64103C178.814 8.97503 179.39 8.44403 180.056 8.04803C180.866 7.58003 181.775 7.33703 182.783 7.31903C183.791 7.30103 184.754 7.49903 185.672 7.91303C186.284 8.18303 186.833 8.55203 187.319 9.02003C187.805 9.47003 188.174 10.019 188.426 10.667C188.498 10.829 188.552 11.027 188.588 11.261C188.642 11.495 188.678 11.747 188.696 12.017C188.714 12.269 188.714 12.521 188.696 12.773C188.678 13.025 188.633 13.25 188.561 13.448C188.453 13.772 188.318 14.024 188.156 14.204C187.994 14.384 187.787 14.519 187.535 14.609C187.283 14.699 186.977 14.762 186.617 14.798C186.275 14.816 185.861 14.834 185.375 14.852C184.943 14.87 184.538 14.879 184.16 14.879C183.782 14.879 183.395 14.879 182.999 14.879C182.603 14.861 182.189 14.852 181.757 14.852C181.343 14.834 180.875 14.816 180.353 14.798C180.299 15.158 180.344 15.473 180.488 15.743C180.65 15.995 180.866 16.211 181.136 16.391C181.406 16.553 181.712 16.679 182.054 16.769C182.396 16.859 182.729 16.913 183.053 16.931C183.665 16.967 184.25 16.922 184.808 16.796C185.366 16.652 185.942 16.49 186.536 16.31ZM185.375 11.072C185.033 10.676 184.673 10.388 184.295 10.208C184.007 10.082 183.701 10.028 183.377 10.046C183.071 10.046 182.774 10.091 182.486 10.181C181.964 10.307 181.523 10.577 181.163 10.991C181.127 11.027 181.064 11.117 180.974 11.261C180.884 11.387 180.794 11.522 180.704 11.666C180.632 11.81 180.578 11.945 180.542 12.071C180.506 12.197 180.524 12.26 180.596 12.26H185.888C185.87 12.008 185.825 11.801 185.753 11.639C185.681 11.459 185.555 11.27 185.375 11.072ZM190.905 10.451C190.905 10.235 190.905 9.99203 190.905 9.72203C190.905 9.43403 190.914 9.14603 190.932 8.85803C190.95 8.55203 190.977 8.26403 191.013 7.99403C191.067 7.70603 191.139 7.45403 191.229 7.23803C191.373 6.91403 191.598 6.69803 191.904 6.59003C192.21 6.46403 192.543 6.41003 192.903 6.42803C193.281 6.42803 193.578 6.49103 193.794 6.61703C194.01 6.74303 194.172 6.91403 194.28 7.13003C194.388 7.32803 194.451 7.56203 194.469 7.83203C194.505 8.08403 194.523 8.35403 194.523 8.64203C194.685 8.35403 194.901 8.12003 195.171 7.94003C195.459 7.76003 195.747 7.61603 196.035 7.50803C196.323 7.40003 196.584 7.32803 196.818 7.29203C197.052 7.23803 197.187 7.21103 197.223 7.21103C197.673 7.17503 198.078 7.16603 198.438 7.18403C198.816 7.20203 199.23 7.28303 199.68 7.42703C199.968 7.53503 200.265 7.68803 200.571 7.88603C200.877 8.06603 201.147 8.28203 201.381 8.53403C201.615 8.78603 201.768 9.06503 201.84 9.37103C201.93 9.65903 201.894 9.96503 201.732 10.289C201.48 10.739 201.201 10.964 200.895 10.964C200.589 10.946 200.256 10.892 199.896 10.802C199.698 10.766 199.464 10.685 199.194 10.559C198.924 10.433 198.69 10.352 198.492 10.316C197.88 10.226 197.34 10.271 196.872 10.451C196.404 10.631 195.999 10.847 195.657 11.099C195.261 11.405 194.919 11.756 194.631 12.152V16.04C194.631 16.526 194.622 17.03 194.604 17.552C194.604 18.074 194.532 18.551 194.388 18.983C194.262 19.397 194.037 19.739 193.713 20.009C193.407 20.261 192.957 20.369 192.363 20.333C192.039 20.315 191.751 20.162 191.499 19.874C191.247 19.568 191.094 19.271 191.04 18.983C191.004 18.713 190.977 18.389 190.959 18.011C190.941 17.633 190.923 17.237 190.905 16.823C190.905 16.409 190.905 15.995 190.905 15.581C190.905 15.149 190.905 14.753 190.905 14.393V10.451ZM209.355 15.257C209.013 15.041 208.626 14.87 208.194 14.744C207.78 14.618 207.348 14.501 206.898 14.393C206.466 14.285 206.043 14.168 205.629 14.042C205.215 13.898 204.837 13.7 204.495 13.448C203.757 12.89 203.325 12.206 203.199 11.396C203.091 10.568 203.271 9.74003 203.739 8.91203C203.991 8.48003 204.324 8.12903 204.738 7.85903C205.152 7.57103 205.602 7.35503 206.088 7.21103C206.592 7.04903 207.105 6.95903 207.627 6.94103C208.149 6.92303 208.644 6.95003 209.112 7.02203C209.418 7.07603 209.742 7.15703 210.084 7.26503C210.426 7.35503 210.741 7.48103 211.029 7.64303C211.335 7.80503 211.605 8.01203 211.839 8.26403C212.091 8.49803 212.271 8.79503 212.379 9.15503C212.451 9.38903 212.46 9.61403 212.406 9.83003C212.37 10.046 212.28 10.226 212.136 10.37C212.01 10.514 211.839 10.622 211.623 10.694C211.425 10.766 211.209 10.784 210.975 10.748C210.705 10.694 210.453 10.613 210.219 10.505C209.985 10.397 209.751 10.28 209.517 10.154C209.283 10.028 209.04 9.92003 208.788 9.83003C208.554 9.74003 208.302 9.69503 208.032 9.69503C207.618 9.67703 207.276 9.74903 207.006 9.91103C206.736 10.073 206.547 10.271 206.439 10.505C206.349 10.739 206.358 10.991 206.466 11.261C206.592 11.531 206.844 11.765 207.222 11.963C207.564 12.143 207.942 12.287 208.356 12.395C208.77 12.503 209.175 12.611 209.571 12.719C209.985 12.827 210.381 12.953 210.759 13.097C211.155 13.241 211.506 13.439 211.812 13.691C212.406 14.177 212.766 14.744 212.892 15.392C213.036 16.04 213 16.679 212.784 17.309C212.568 17.939 212.19 18.497 211.65 18.983C211.128 19.469 210.507 19.793 209.787 19.955C209.265 20.063 208.698 20.117 208.086 20.117C207.492 20.117 206.898 20.054 206.304 19.928C205.728 19.802 205.17 19.604 204.63 19.334C204.108 19.064 203.667 18.722 203.307 18.308C203.055 18.02 202.92 17.696 202.902 17.336C202.902 16.958 202.974 16.634 203.118 16.364C203.28 16.076 203.505 15.878 203.793 15.77C204.081 15.662 204.405 15.725 204.765 15.959C205.053 16.157 205.395 16.355 205.791 16.553C206.187 16.733 206.583 16.877 206.979 16.985C207.375 17.093 207.753 17.147 208.113 17.147C208.491 17.147 208.815 17.066 209.085 16.904C209.481 16.652 209.688 16.364 209.706 16.04C209.724 15.698 209.607 15.437 209.355 15.257ZM224.505 16.31C224.721 16.256 224.937 16.22 225.153 16.202C225.387 16.184 225.594 16.211 225.774 16.283C225.972 16.355 226.134 16.481 226.26 16.661C226.386 16.823 226.449 17.057 226.449 17.363C226.449 17.579 226.395 17.786 226.287 17.984C226.179 18.182 226.044 18.362 225.882 18.524C225.72 18.686 225.54 18.83 225.342 18.956C225.144 19.064 224.955 19.154 224.775 19.226C224.253 19.46 223.65 19.64 222.966 19.766C222.3 19.892 221.607 19.937 220.887 19.901C219.915 19.865 218.979 19.676 218.079 19.334C217.197 18.974 216.504 18.389 216 17.579C215.532 16.787 215.253 15.905 215.163 14.933C215.073 13.961 215.118 13.043 215.298 12.179C215.496 11.135 215.829 10.289 216.297 9.64103C216.783 8.97503 217.359 8.44403 218.025 8.04803C218.835 7.58003 219.744 7.33703 220.752 7.31903C221.76 7.30103 222.723 7.49903 223.641 7.91303C224.253 8.18303 224.802 8.55203 225.288 9.02003C225.774 9.47003 226.143 10.019 226.395 10.667C226.467 10.829 226.521 11.027 226.557 11.261C226.611 11.495 226.647 11.747 226.665 12.017C226.683 12.269 226.683 12.521 226.665 12.773C226.647 13.025 226.602 13.25 226.53 13.448C226.422 13.772 226.287 14.024 226.125 14.204C225.963 14.384 225.756 14.519 225.504 14.609C225.252 14.699 224.946 14.762 224.586 14.798C224.244 14.816 223.83 14.834 223.344 14.852C222.912 14.87 222.507 14.879 222.129 14.879C221.751 14.879 221.364 14.879 220.968 14.879C220.572 14.861 220.158 14.852 219.726 14.852C219.312 14.834 218.844 14.816 218.322 14.798C218.268 15.158 218.313 15.473 218.457 15.743C218.619 15.995 218.835 16.211 219.105 16.391C219.375 16.553 219.681 16.679 220.023 16.769C220.365 16.859 220.698 16.913 221.022 16.931C221.634 16.967 222.219 16.922 222.777 16.796C223.335 16.652 223.911 16.49 224.505 16.31ZM223.344 11.072C223.002 10.676 222.642 10.388 222.264 10.208C221.976 10.082 221.67 10.028 221.346 10.046C221.04 10.046 220.743 10.091 220.455 10.181C219.933 10.307 219.492 10.577 219.132 10.991C219.096 11.027 219.033 11.117 218.943 11.261C218.853 11.387 218.763 11.522 218.673 11.666C218.601 11.81 218.547 11.945 218.511 12.071C218.475 12.197 218.493 12.26 218.565 12.26H223.857C223.839 12.008 223.794 11.801 223.722 11.639C223.65 11.459 223.524 11.27 223.344 11.072Z" fill="black"/>
</svg>
