<svg width="238" height="57" viewBox="0 0 238 57" fill="none" xmlns="http://www.w3.org/2000/svg">
<path d="M25.359 51.971C23.9897 53.393 22.3833 54.499 20.54 55.289C18.7493 56.0263 16.8533 56.395 14.852 56.395C12.798 56.395 10.8757 56.0263 9.085 55.289C7.29433 54.499 5.71433 53.4457 4.345 52.129C3.02833 50.7597 1.975 49.1797 1.185 47.389C0.447667 45.5983 0.079 43.676 0.079 41.622V15.236C0.079 13.182 0.447667 11.2597 1.185 9.469C1.975 7.67833 3.02833 6.12467 4.345 4.808C5.71433 3.43867 7.29433 2.38533 9.085 1.648C10.8757 0.857999 12.798 0.462999 14.852 0.462999C17.5907 0.462999 20.0923 1.14766 22.357 2.517C24.6217 3.88633 26.386 5.70333 27.65 7.968L30.731 4.887C31.1523 4.51833 31.5473 4.176 31.916 3.86C32.3373 3.49133 32.7587 3.17533 33.18 2.912L33.259 2.833C35.7343 1.253 38.394 0.462999 41.238 0.462999C44.1873 0.462999 46.8733 1.27933 49.296 2.912H49.375C51.0603 4.018 52.456 5.41366 53.562 7.099L53.641 7.257L54.115 7.968L57.275 4.808C58.697 3.386 60.3033 2.30633 62.094 1.569C63.9373 0.831666 65.807 0.462999 67.703 0.462999C69.599 0.462999 71.4423 0.831666 73.233 1.569C75.0237 2.30633 76.63 3.386 78.052 4.808C79.474 6.23 80.5537 7.86266 81.291 9.706C82.0283 11.4967 82.397 13.34 82.397 15.236C82.397 17.132 82.0283 19.0017 81.291 20.845C80.5537 22.6357 79.474 24.242 78.052 25.664L51.745 51.971C50.3757 53.393 48.7693 54.499 46.926 55.289C45.1353 56.0263 43.2393 56.395 41.238 56.395C38.4993 56.395 35.9977 55.7103 33.733 54.341C31.4683 52.9717 29.704 51.1547 28.44 48.89L25.359 51.971ZM88.7207 13.261C88.7207 11.523 89.0367 9.89033 89.6687 8.363C90.3534 6.83566 91.2487 5.49266 92.3547 4.334C93.5134 3.17533 94.8564 2.28 96.3837 1.648C97.911 0.963331 99.5437 0.620997 101.282 0.620997C103.02 0.620997 104.652 0.963331 106.18 1.648C107.707 2.28 109.05 3.17533 110.209 4.334C111.367 5.49266 112.263 6.83566 112.895 8.363C113.579 9.89033 113.922 11.523 113.922 13.261V42.886C113.922 44.624 113.579 46.2567 112.895 47.784C112.263 49.3113 111.367 50.6543 110.209 51.813C109.05 52.919 107.707 53.8143 106.18 54.499C104.652 55.131 103.02 55.447 101.282 55.447C99.5437 55.447 97.911 55.131 96.3837 54.499C94.8564 53.8143 93.5134 52.919 92.3547 51.813C91.2487 50.6543 90.3534 49.3113 89.6687 47.784C89.0367 46.2567 88.7207 44.624 88.7207 42.886V13.261ZM141.312 4.492L149.449 12.629C149.555 10.9963 149.95 9.44266 150.634 7.968C151.372 6.49333 152.293 5.22933 153.399 4.176C154.558 3.12266 155.901 2.28 157.428 1.648C158.956 1.016 160.562 0.699996 162.247 0.699996C164.038 0.699996 165.697 1.04233 167.224 1.727C168.804 2.359 170.174 3.25433 171.332 4.413C172.491 5.57166 173.413 6.941 174.097 8.521C174.782 10.0483 175.124 11.7073 175.124 13.498V43.676C175.124 46.204 174.44 48.5213 173.07 50.628L172.991 50.786C172.043 52.2607 170.832 53.472 169.357 54.42C167.198 55.842 164.828 56.553 162.247 56.553C159.719 56.553 157.402 55.8683 155.295 54.499L155.216 54.42C154.795 54.1567 154.4 53.8933 154.031 53.63C153.715 53.314 153.399 52.998 153.083 52.682L144.946 44.545C144.841 46.2303 144.42 47.8103 143.682 49.285C142.998 50.707 142.076 51.971 140.917 53.077C139.759 54.1303 138.416 54.973 136.888 55.605C135.414 56.237 133.834 56.553 132.148 56.553C130.358 56.553 128.672 56.2107 127.092 55.526C125.565 54.8413 124.222 53.9197 123.063 52.761C121.905 51.6023 120.983 50.2593 120.298 48.732C119.614 47.152 119.271 45.4667 119.271 43.676V13.498C119.271 11.7073 119.614 10.0483 120.298 8.521C120.983 6.941 121.905 5.57166 123.063 4.413C124.222 3.25433 125.565 2.359 127.092 1.727C128.672 1.04233 130.358 0.699996 132.148 0.699996C133.834 0.699996 135.466 1.04233 137.046 1.727C138.679 2.359 140.101 3.28067 141.312 4.492ZM223.959 29.535V42.254C223.959 44.308 223.564 46.2303 222.774 48.021C222.036 49.759 220.983 51.3127 219.614 52.682C218.297 53.9987 216.743 55.052 214.953 55.842C213.162 56.5793 211.24 56.948 209.186 56.948C207.132 56.948 205.209 56.5793 203.419 55.842C201.681 55.052 200.127 53.9987 198.758 52.682C197.441 51.3127 196.388 49.759 195.598 48.021C194.86 46.2303 194.492 44.308 194.492 42.254V29.535C192.648 29.3243 190.91 28.824 189.278 28.034C187.698 27.1913 186.302 26.1117 185.091 24.795C183.932 23.4783 183.01 21.9773 182.326 20.292C181.641 18.6067 181.299 16.816 181.299 14.92C181.299 12.866 181.667 10.9437 182.405 9.153C183.195 7.36233 184.248 5.80866 185.565 4.492C186.934 3.12266 188.488 2.06933 190.226 1.332C192.016 0.541998 193.939 0.146999 195.993 0.146999H222.379C224.433 0.146999 226.355 0.541998 228.146 1.332C229.936 2.06933 231.49 3.12266 232.807 4.492C234.176 5.80866 235.229 7.36233 235.967 9.153C236.757 10.9437 237.152 12.866 237.152 14.92C237.152 16.816 236.809 18.6067 236.125 20.292C235.44 21.9773 234.492 23.4783 233.281 24.795C232.122 26.1117 230.726 27.1913 229.094 28.034C227.514 28.824 225.802 29.3243 223.959 29.535Z" fill="black"/>
</svg>
