<svg width="400" height="400" viewBox="0 0 400 400" fill="none" xmlns="http://www.w3.org/2000/svg">
<g clip-path="url(#clip0_33_2)">
<path d="M-2.98023e-06 200C-2.98023e-06 89.543 -2.98023e-06 -5.67436e-06 -2.98023e-06 -5.67436e-06C110.457 -5.67436e-06 200 89.543 200 200C200 200 110.457 200 -2.98023e-06 200Z" fill="url(#paint0_linear_33_2)"/>
<path d="M200 -2.98023e-06C310.457 -2.98023e-06 400 -2.98023e-06 400 -2.98023e-06C400 110.457 310.457 200 200 200C200 200 200 110.457 200 -2.98023e-06Z" fill="url(#paint1_linear_33_2)"/>
<path d="M200 400C89.543 400 -5.67436e-06 400 -5.67436e-06 400C-5.67436e-06 289.543 89.543 200 200 200C200 200 200 289.543 200 400Z" fill="url(#paint2_linear_33_2)"/>
<path d="M400 200C400 310.457 400 400 400 400C289.543 400 200 310.457 200 200C200 200 289.543 200 400 200Z" fill="url(#paint3_linear_33_2)"/>
</g>
<defs>
<linearGradient id="paint0_linear_33_2" x1="100" y1="200" x2="100" y2="0" gradientUnits="userSpaceOnUse">
<stop stop-color="#F5F294"/>
<stop offset="1" stop-color="#C3EDC6"/>
</linearGradient>
<linearGradient id="paint1_linear_33_2" x1="200" y1="100" x2="400" y2="100" gradientUnits="userSpaceOnUse">
<stop stop-color="#F5F294"/>
<stop offset="1" stop-color="#C3EDC6"/>
</linearGradient>
<linearGradient id="paint2_linear_33_2" x1="200" y1="300" x2="0" y2="300" gradientUnits="userSpaceOnUse">
<stop stop-color="#F5F294"/>
<stop offset="1" stop-color="#C3EDC6"/>
</linearGradient>
<linearGradient id="paint3_linear_33_2" x1="300" y1="200" x2="300" y2="400" gradientUnits="userSpaceOnUse">
<stop stop-color="#F5F294"/>
<stop offset="1" stop-color="#C3EDC6"/>
</linearGradient>
<clipPath id="clip0_33_2">
<rect width="400" height="400" fill="white"/>
</clipPath>
</defs>
</svg>
